<?xml version="1.0" encoding="utf-8"?>
<!-- Generator: Adobe Illustrator 25.4.1, SVG Export Plug-In . SVG Version: 6.00 Build 0)  -->
<svg version="1.0" id="Layer_1" xmlns="http://www.w3.org/2000/svg" xmlns:xlink="http://www.w3.org/1999/xlink" x="0px" y="0px"
	 viewBox="0 0 1050 640" style="enable-background:new 0 0 1050 640;" xml:space="preserve">
<style type="text/css">
	.st0{fill:#8B4283;}
</style>
<g id="g850" transform="matrix(0.92871685,0,0,0.92871685,2.4356385,2.1384945)">
	<path id="path7" class="st0" d="M1022,350.4c-3.4-12.4-14.3-20.3-27-20.3c-11.5,0-22.7,9-25.1,20.3H1022z M1037,375.8
		c-6.8,16.4-22.7,27.5-40.6,27.5c-25.1,0-45.2-19.6-45.2-45c0-25.4,19.2-45.8,44.8-45.8c11.9,0,23.8,5.3,32.2,13.9
		c8.5,9,12.1,20,12.1,32.2l-0.6,6.9H970c2.6,11.9,13.5,20.6,25.8,20.6c8.5,0,15.9-3.2,20.8-10.3L1037,375.8 M859.9,333.4h-11.1V315
		h30.7v12.3c5.2-9.5,14.8-14.1,25.4-14.1c9.3,0,18.5,3.9,24.8,10.7c7.1,7.9,7.3,15.5,7.3,25.2v33.7h11.1v18.4h-41.8v-18.4h11.1
		v-27.8c0-5.3,0-10.8-3.4-15.5c-3.6-4.7-9.3-6.9-15.1-6.9c-6,0-12.1,2.4-15.6,7.3c-3.7,4.8-3.7,12.3-3.7,18v25h11.1v18.4h-41.8
		v-18.4h11.1L859.9,333.4 M831.7,306.8h-19.6V286h19.6V306.8z M831.7,382.7h11.1v18.4h-42v-18.4h11.3v-49.2H801v-18.4h30.7V382.7
		 M654.3,333.4h-11.1V315h29v13c5.5-9,13.9-15,24.8-15c11.9,0,21.9,7.3,26.7,18c4.7-10.9,16.3-18,28.2-18c9.3,0,18.5,3.8,24.8,10.9
		c6.8,7.9,6.8,16.4,6.8,26.2v32.5h11.1V401h-41.8v-18.4h11.1v-27.7c0-5.6,0-10.7-2.6-15.6c-3.2-4.7-8.5-7.1-14-7.1
		c-5.3,0-11.1,2.2-14.5,6.4c-4,5.2-4,10-4,16.3v27.7h11.1v18.4h-41.8v-18.4H709v-26.4c0-5.2,0-11.5-2.6-16.1
		c-2.8-5.2-8.4-7.9-14.1-7.9c-5.5,0-10.1,2-13.7,6.3c-4.4,5.3-4.7,10.9-4.7,17.5v26.6h11.1v18.4h-41.8v-18.4h11.1L654.3,333.4
		 M590.2,376.1c0.6,7.7,5.8,12.9,13.9,12.9c6,0,11.7-4.2,11.7-10.7c0-8.5-8.1-10-14.7-11.7c-15-3.8-31.4-8.5-31.4-27.4
		c0-16.4,13.9-25.9,29.1-25.9c7.7,0,14.7,1.6,19.5,7.7v-6h14.5v23.4h-19c-0.4-6.1-5-10.1-11.1-10.1c-5.3,0-10.9,3-10.9,9
		c0,8.1,7.9,9.9,14.1,11.3c15.5,3.6,32.1,8.4,32.1,27.7c0,17.4-14.7,27-30.7,27c-8.7,0-16.6-2.8-22.2-9.3v7.1h-15v-25H590.2
		 M533.8,357.6c0-14.1-11.7-25.6-25.9-25.6c-14.7,0-25.9,12.1-25.9,26.6c0,14,11.7,25.6,25.6,25.6
		C522.4,384.1,533.8,372.2,533.8,357.6z M533.5,389.5c-6.3,9.5-16.4,13.9-27.7,13.9c-24.6,0-44.1-20.4-44.1-44.8
		c0-25,20-45.8,45-45.8c11.1,0,20.8,5.2,26.7,14.5V315h30.7v18.4h-10.8v49.2h10.8V401h-30.7V389.5 M400.8,368.7
		c0.2,7.1,4.5,14.3,12.5,14.3c4.8,0,8.4-2.2,10.8-6.3c2.2-4,2.2-10,2.2-14.5v-57.7h-12.5V286h46.9v18.4h-12.3v60.5
		c0,10.3-0.6,18.4-7.9,26.7c-6.4,7.4-16.9,11.5-26.9,11.5c-20.6,0-36.3-13.7-35.5-34.6L400.8,368.7"/>
	<g id="g844" transform="matrix(1.2593529,0,0,1.2593529,-9.6655872,-7.7805845)">
		<path id="path9" class="st0" d="M170.2,260.3h15.9l4-5.4v-42.6h-23.8v42.6L170.2,260.3"/>
		<path id="path11" class="st0" d="M174.6,343.5h6.6V311h-6.6V343.5z M115.7,300.4l-2-6.3l30.8-10l2,6.3L115.7,300.4 M155.5,251
			l-19.1-26.2l5.3-3.9l19.1,26.2L155.5,251 M201.1,251.3l-5.3-3.9l19.1-26.2l5.3,3.9L201.1,251.3 M240.4,300.8l-30.8-10l2-6.3
			l30.8,10L240.4,300.8 M191.4,264.1l4.9,15.2l6.4,2l40.6-13.1l-7.4-22.7l-40.6,13.1L191.4,264.1 M194.3,285.6l-12.9,9.3v6.8
			l25.1,34.6l19.3-14l-25.1-34.6L194.3,285.6 M174.9,295l-12.9-9.3l-6.4,2l-25.1,34.6l19.3,14l25.1-34.6L174.9,295 M159.9,279.3
			l4.9-15.2l-4-5.4l-40.6-13.1l-7.4,22.7l40.6,13.1L159.9,279.3 M178.2,175.1c-56.8,0-102.9,46.1-102.9,102.8
			s46.1,102.9,102.9,102.9c56.7,0,102.9-46.1,102.9-102.9C281,221.2,234.8,175.1,178.2,175.1z M178.2,195.9c45.3,0,82,36.7,82,82
			s-36.7,82-82,82s-82-36.7-82-82C96.2,232.6,132.9,195.9,178.2,195.9"/>
	</g>
</g>
</svg>
